<svg xmlns="http://www.w3.org/2000/svg" width="249" height="180" viewBox="0 0 249 180">
    <path fill="#6CBF92" fill-rule="evenodd" d="M57.86 83.583H7.497c-3.888 0-7.28 3.489-7.28 7.49 0 4.002 3.392 7.491 7.28 7.491H57.86c3.89 0 7.28-3.201 7.28-7.49-.28-4.29-3.39-7.491-7.28-7.491zM7.28 68.889h50.332c3.888 0 7.279-3.489 7.279-7.49 0-4.002-3.11-7.491-7.28-7.491H7.28C3.391 53.908 0 57.397 0 61.398 0 65.4 3.39 68.89 7.28 68.89zm50.332 44.048H7.279c-3.888 0-7.279 3.49-7.279 7.491 0 4.001 3.39 7.49 7.28 7.49h50.332c3.888 0 7.279-3.2 7.279-7.49-.031-4.001-3.142-7.49-7.28-7.49zm183.66 0H190.94c-3.889 0-7.28 3.49-7.28 7.491 0 4.001 3.111 7.49 7.28 7.49h50.332c3.888 0 7.28-3.2 7.28-7.49 0-4.001-3.392-7.49-7.28-7.49zm0-29.354H190.94c-3.889 0-7.28 3.489-7.28 7.49 0 4.002 3.111 7.491 7.28 7.491h50.332c3.888 0 7.28-3.201 7.28-7.49 0-4.29-3.392-7.491-7.28-7.491zm-50.581-14.694h50.332c3.889 0 7.28-3.489 7.28-7.49 0-4.002-3.391-7.491-7.28-7.491h-50.332c-3.889 0-7.28 3.489-7.28 7.49 0 4.002 3.36 7.491 7.28 7.491zm-21.807-7.458c0-4.002-3.39-7.491-7.279-7.491s-7.28 3.2-7.28 7.49v92.066c0 6.659-5.194 12.036-11.696 12.036-6.252 0-11.416-5.346-11.416-12.036V26.954C131.213 12.26 119.516 0 105.269 0S79.325 12.26 79.325 26.954V120.684c0 4.002 3.11 7.49 7.28 7.49 4.136 0 7.278-3.2 7.278-7.49V26.73c0-6.659 5.195-12.037 11.697-12.037 6.252 0 11.417 5.346 11.417 12.037v126.542c0 14.693 11.696 26.954 25.943 26.954 14.248 0 25.944-12.26 25.944-26.954V61.43z"/>
</svg>
